<?xml version="1.0" encoding="utf-8"?>
<!-- Generator: Adobe Illustrator 24.1.0, SVG Export Plug-In . SVG Version: 6.00 Build 0)  -->
<svg version="1.1" id="b9c0da93-509d-46dc-9a76-dff305fb8203"
	 xmlns="http://www.w3.org/2000/svg" xmlns:xlink="http://www.w3.org/1999/xlink" x="0px" y="0px" viewBox="0 0 256 85"
	 style="enable-background:new 0 0 256 85;" xml:space="preserve">
<style type="text/css">
	.st0{enable-background:new    ;}
	.st1{fill:#7C3BED;}
</style>
<g class="st0">
	<path class="st1" d="M5.2,63.8V13.9h8.3v42h11.2v8H5.2V63.8z"/>
	<path class="st1" d="M50,55.1c0,6.3-3.6,9.5-10.8,9.5s-10.7-3.2-10.7-9.5V28.8c0-6.3,3.6-9.5,10.7-9.5c7.2,0,10.8,3.2,10.8,9.5
		V55.1z M41.7,28.8c0-1.6-0.8-2.5-2.4-2.5h-0.1c-1.6,0-2.4,0.8-2.4,2.5v26.3c0,1.6,0.8,2.5,2.4,2.5c1.6,0,2.5-0.8,2.5-2.5V28.8z"/>
	<path class="st1" d="M66.7,38.4H77v16.7c0,6.3-3.6,9.5-10.8,9.5s-10.7-3.2-10.7-9.5V28.8c0-6.3,3.6-9.5,10.7-9.5
		c7.2,0,10.8,3.2,10.8,9.5V35h-8.3v-6.2c0-1.6-0.8-2.5-2.4-2.5h-0.1c-1.6,0-2.4,0.8-2.4,2.5v26.3c0,1.6,0.8,2.5,2.4,2.5
		s2.5-0.8,2.5-2.5v-9.6h-2.1L66.7,38.4L66.7,38.4z"/>
	<path class="st1" d="M104,55.1c0,6.3-3.6,9.5-10.8,9.5c-7.2,0-10.7-3.2-10.7-9.5V28.8c0-6.3,3.6-9.5,10.7-9.5
		c7.2,0,10.8,3.2,10.8,9.5V55.1z M95.7,28.8c0-1.6-0.8-2.5-2.4-2.5h-0.1c-1.6,0-2.4,0.8-2.4,2.5v26.3c0,1.6,0.8,2.5,2.4,2.5
		s2.5-0.8,2.5-2.5V28.8z"/>
	<path class="st1" d="M126,47l7.7-33.1h8.2v49.9h-8v-23l-4.9,23h-5.8l-5.1-23.1v23.1H110V13.9h8.2L126,47z"/>
	<path class="st1" d="M169.4,48.1l2.4,15.8h-8.4l-1.4-9.1h-6.1l-1.4,9.1h-8.4l2.4-15.7l5.1-28.2h10.8L169.4,48.1z M160.9,47.7
		l-2-13.3l-2,13.3H160.9z"/>
</g>
<g class="st0">
	<path class="st1" d="M176,19.9h10.9c6.7,0,10,3.2,10,9.5v6.5c0,4-1.8,6.5-5.4,7.7l8,20.2h-9l-5.7-18.9h-0.4v18.9H176V19.9z
		 M184.3,26.9v11.4h1c0.9,0,1.5,0,1.7-0.1c1-0.4,1.6-1.1,1.6-2.3v-6.5c0-1.7-0.8-2.5-2.4-2.5C186.2,26.9,184.3,26.9,184.3,26.9z"/>
</g>
<g class="st0">
	<path class="st1" d="M223.9,55.1c0,6.3-3.6,9.5-10.8,9.5s-10.7-3.2-10.7-9.5V28.8c0-6.3,3.6-9.5,10.7-9.5c7.2,0,10.8,3.2,10.8,9.5
		V35h-8.3v-6.2c0-1.6-0.8-2.5-2.4-2.5l0,0c-1.6,0-2.4,0.8-2.4,2.5v26.3c0,1.6,0.8,2.5,2.4,2.5c1.6,0,2.5-0.8,2.5-2.5v-6.2h8.3v6.2
		H223.9z"/>
	<path class="st1" d="M250.6,48.1l2.4,15.8h-8.4l-1.4-9.1h-6.1l-1.4,9.1h-8.4l2.4-15.7l5.1-28.2h10.8L250.6,48.1z M242.2,47.7
		l-2-13.3l-2,13.3H242.2z"/>
</g>
</svg>
